# xmcd
#
# Track frame offsets:
# 150
# 17604
# 29561
# 49470
# 59640
# 84020
# 98149
# 115299
# 133460
# 153349
# 163611
# 181690
#
# Disc length: 2627 seconds
#
#
# Revision: 0
# Processed by: cddbd v1.5PL3 Copyright (c) Steve Scherf et al.
# Submitted via: FreeRIP 2.52 
#
DISCID=9c0a410c
DTITLE=Toby Keith - 
DYEAR=1900
DGENRE=
TTITLE0=I Love This Bar
TTITLE1=Whiskey Girl
TTITLE2=American Soldier
TTITLE3=If I Was Jesus
TTITLE4=Time For Me To Ride
TTITLE5=Sweet
TTITLE6=Don't Leave, I Think I Love You
TTITLE7=Nights I Can't Remember, Friends I'll Never Forget
TTITLE8=Baddest Boots
TTITLE9=The Critic
TTITLE10=The Taliban Song
TTITLE11=Weed With Willie
EXTD=
EXTT0=
EXTT1=
EXTT2=
EXTT3=
EXTT4=
EXTT5=
EXTT6=
EXTT7=
EXTT8=
EXTT9=
EXTT10=
EXTT11=
PLAYORDER=
